# Blender v2.75 (sub 0) OBJ File: 'wall.blend'
# www.blender.org
o Cube
v 5.000000 60.000000 -5.000000
v 5.000000 60.000000 5.000000
v 5.000000 0.000000 5.000000
v 5.000000 -0.000000 -5.000000
v -5.000000 60.000000 5.000000
v -5.000000 0.000000 5.000000
v -5.000000 60.000000 -5.000000
v -5.000000 -0.000000 -5.000000
v 0.000000 0.000000 5.000000
v 0.000000 -0.000000 -5.000000
v -5.000000 0.000000 0.000000
v 5.000000 0.000000 0.000000
v 0.000000 0.000000 0.000000
vt 0.600000 1.000000
vt 0.400000 1.000000
vt 0.500000 0.000000
vt 0.800000 1.000000
vt 0.700000 0.000000
vt 0.000000 0.000000
vt 0.200000 0.000000
vt 0.100000 1.000000
vt 0.400000 0.000000
vt 0.300000 1.000000
vt 0.900000 0.166667
vt 0.800000 0.166667
vt 0.800000 0.083333
vt 0.900000 0.083333
vt 0.800000 0.000000
vt 1.000000 0.083333
vt 0.900000 0.000000
vt 1.000000 0.166667
vt 0.600000 0.000000
vt 0.000000 1.000000
vt 0.200000 1.000000
vt 1.000000 0.000000
vn 1.000000 0.000000 0.000000
vn 0.000000 0.000000 1.000000
vn -1.000000 0.000000 0.000000
vn 0.000000 0.000000 -1.000000
vn 0.000000 -1.000000 0.000000
s 1
f 1/1/1 2/2/1 12/3/1
f 2/4/2 5/1/2 9/5/2
f 5/6/3 7/7/3 11/8/3
f 7/7/4 1/9/4 10/10/4
f 10/11/5 4/12/5 12/13/5
f 13/14/5 12/13/5 3/15/5
f 11/16/5 13/14/5 9/17/5
f 8/18/5 10/11/5 13/14/5
f 12/3/1 4/19/1 1/1/1
f 2/2/1 3/9/1 12/3/1
f 9/5/2 3/15/2 2/4/2
f 5/1/2 6/19/2 9/5/2
f 11/8/3 6/20/3 5/6/3
f 7/7/3 8/21/3 11/8/3
f 10/10/4 8/21/4 7/7/4
f 1/9/4 4/2/4 10/10/4
f 13/14/5 10/11/5 12/13/5
f 9/17/5 13/14/5 3/15/5
f 6/22/5 11/16/5 9/17/5
f 11/16/5 8/18/5 13/14/5
